<?xml version="1.0" encoding="UTF-8" standalone="no"?>
<!DOCTYPE svg PUBLIC "-//W3C//DTD SVG 1.1//EN" "http://www.w3.org/Graphics/SVG/1.1/DTD/svg11.dtd">
<svg version="1.1" xmlns="http://www.w3.org/2000/svg" xmlns:xlink="http://www.w3.org/1999/xlink" preserveAspectRatio="xMidYMid meet" viewBox="-1.0000000000000142 -0.9999999999999858 174 174.00000000000006" width="170" height="170"><defs><path d="M170 85C170 131.91 131.91 170 85 170C38.09 170 0 131.91 0 85C0 38.09 38.09 0 85 0C131.91 0 170 38.09 170 85Z" id="k3YEArnDop"></path><path d="M138.87 91.95C143.04 90.15 143.04 84.29 138.87 82.49C129.9 78.65 58.16 47.89 49.19 44.05C45.8 42.56 42.05 45.07 42.05 48.72C42.04 51.09 42 70.05 42 72.42C42 74.99 43.9 77.2 46.47 77.51C51.31 78.15 75.51 81.39 119.09 87.22C75.51 93.02 51.31 96.24 46.47 96.88C43.9 97.24 42 99.45 42 102.02C42 104.39 42.04 123.35 42.05 125.72C42.05 129.37 45.8 131.88 49.19 130.39C67.13 122.7 129.9 95.79 138.87 91.95Z" id="aS2BjYiu9"></path></defs><g><g><use xlink:href="#k3YEArnDop" opacity="1" fill="#50a2e9" fill-opacity="1"></use></g><g><use xlink:href="#aS2BjYiu9" opacity="1" fill="#ffffff" fill-opacity="1"></use><g><use xlink:href="#aS2BjYiu9" opacity="1" fill-opacity="0" stroke="#000000" stroke-width="1" stroke-opacity="0"></use></g></g></g></svg>