<?xml version="1.0" encoding="utf-8"?>
<!-- Generator: Adobe Illustrator 25.2.1, SVG Export Plug-In . SVG Version: 6.00 Build 0)  -->
<svg version="1.1" id="Layer_1" xmlns="http://www.w3.org/2000/svg" xmlns:xlink="http://www.w3.org/1999/xlink" x="0px" y="0px"
	 viewBox="0 0 48 48" style="enable-background:new 0 0 48 48;" xml:space="preserve">
<style type="text/css">
	.st0{fill:#FFFFFF;}
</style>
<path class="st0" d="M26.5,33.5c0,1.4-1.1,2.5-2.5,2.5s-2.5-1.1-2.5-2.5S22.6,31,24,31S26.5,32.1,26.5,33.5z"/>
<path class="st0" d="M24,12c-3.5,0-6,2.3-6.9,5l3.3,1.4c0.4-1.3,1.5-3,3.6-3c3.2,0,3.9,3,2.7,4.7c-1.1,1.5-2.9,2.6-3.9,4.3
	c-0.8,1.4-0.6,3-0.6,4h3.6c0-1.9,0.1-2.2,0.4-2.8c0.8-1.4,2.2-2.1,3.7-4.3c1.4-2,0.8-4.7,0-6.2C29,13.3,26.9,12,24,12z"/>
</svg>
