<?xml version="1.0" encoding="utf-8"?>
<!-- Generator: Adobe Illustrator 25.2.1, SVG Export Plug-In . SVG Version: 6.00 Build 0)  -->
<svg version="1.1" id="Layer_1" xmlns="http://www.w3.org/2000/svg" xmlns:xlink="http://www.w3.org/1999/xlink" x="0px" y="0px"
	 viewBox="0 0 48 48" style="enable-background:new 0 0 48 48;" xml:space="preserve">
<style type="text/css">
	.st0{fill:none;}
	.st1{fill:#50A2E9;}
	.st2{fill:#FFFFFF;}
</style>
<path class="st0" d="M0,0h48v48H0V0z"/>
<path class="st1" d="M38,6H10c-2.2,0-4,1.8-4,4v28c0,2.2,1.8,4,4,4h28c2.2,0,4-1.8,4-4V10C42,7.8,40.2,6,38,6z M38,38H10V10h28V38z
	 M30,30v-3c0-1.7-1.3-3-3-3c1.7,0,3-1.3,3-3v-3c0-2.2-1.8-4-4-4h-8v4h8v4h-4v4h4v4h-8v4h8C28.2,34,30,32.2,30,30z"/>
<rect x="8" y="8" class="st1" width="31" height="31"/>
<path class="st2" d="M30,30v-3c0-1.7-1.3-3-3-3c1.7,0,3-1.3,3-3v-3c0-2.2-1.8-4-4-4h-8v4h8v4h-4v4h4v4h-8v4h8C28.2,34,30,32.2,30,30
	z"/>
</svg>
