<?xml version="1.0" encoding="utf-8"?>
<!-- Generator: Adobe Illustrator 25.2.1, SVG Export Plug-In . SVG Version: 6.00 Build 0)  -->
<svg version="1.1" id="Layer_1" xmlns="http://www.w3.org/2000/svg" xmlns:xlink="http://www.w3.org/1999/xlink" x="0px" y="0px"
	 viewBox="0 0 48 48" style="enable-background:new 0 0 48 48;" xml:space="preserve">
<style type="text/css">
	.st0{fill:none;}
	.st1{fill:#50A2E9;}
	.st2{fill:#FFFFFF;}
</style>
<path class="st0" d="M0,0h48v48H0V0z"/>
<path class="st1" d="M38,6H10c-2.2,0-4,1.8-4,4v28c0,2.2,1.8,4,4,4h28c2.2,0,4-1.8,4-4V10C42,7.8,40.2,6,38,6z M38,38H10V10h28V38z
	 M24,34h4V14h-8v4h4V34z"/>
<rect x="9" y="9" class="st1" width="30" height="30"/>
<polygon class="st2" points="24,34 28,34 28,14 20,14 20,18 24,18 "/>
</svg>
